<svg width="328.08253173828126px" height="128.778857421875px" xmlns="http://www.w3.org/2000/svg" viewBox="85.95873413085937 10.610571289062506 328.08253173828126 128.778857421875" style="background-image: none;" preserveAspectRatio="xMidYMid"><defs><filter id="editing-hole" x="-100%" y="-100%" width="300%" height="300%"><feFlood flood-color="#000000" result="black"></feFlood><feMorphology operator="dilate" radius="2" in="SourceGraphic" result="erode"></feMorphology><feGaussianBlur in="erode" stdDeviation="4" result="blur"></feGaussianBlur><feOffset in="blur" dx="2" dy="2" result="offset"></feOffset><feComposite operator="atop" in="offset" in2="black" result="merge"></feComposite><feComposite operator="in" in="merge" in2="SourceGraphic" result="inner-shadow"></feComposite></filter></defs><g filter="url(#editing-hole)"><g transform="translate(134.51500368118286, 97.98281288146973)"><path d="M27.07-2.62L27.07-2.62L27.07-2.62Q25.54-0.26 25.54 0.45L25.54 0.45L25.54 0.45Q25.54 1.15 26.11 1.47L26.11 1.47L26.11 1.47Q26.11 1.54 24.96 2.43L24.96 2.43L24.96 2.43Q23.94 2.94 22.66 2.94L22.66 2.94L22.66 2.94Q21.38 2.94 20.80 2.66L20.80 2.66L20.80 2.66Q20.22 2.37 20.42 1.73L20.42 1.73L20.42 1.73Q21.31-1.15 27.14-9.82L27.14-9.82L27.14-9.82Q32.96-18.50 34.94-22.08L34.94-22.08L34.94-22.08Q39.23-29.82 39.23-34.43L39.23-34.43L39.23-34.43Q39.23-36.35 38.59-37.70L38.59-37.70L38.59-37.70Q37.31-40.32 32.51-40.32L32.51-40.32L32.51-40.32Q25.02-40.32 17.02-33.86L17.02-33.86L17.02-33.86Q10.62-28.67 7.23-22.88L7.23-22.88L7.23-22.88Q3.84-17.09 3.84-12.54L3.84-12.54L3.84-12.54Q3.84-6.02 9.60-5.89L9.60-5.89L9.60-5.89Q9.86-5.89 10.11-5.89L10.11-5.89L10.11-5.89Q17.47-5.89 21.50-11.20L21.50-11.20L21.50-11.20Q23.04-13.31 23.04-14.78L23.04-14.78L23.04-14.78Q23.04-16.26 22.40-16.64L22.40-16.64L22.40-16.64Q22.34-16.70 22.34-16.90L22.34-16.90L22.34-16.90Q22.34-17.09 22.72-17.09L22.72-17.09L22.72-17.09Q24.38-17.09 24.38-14.91L24.38-14.91L24.38-14.91Q24.38-13.57 23.07-11.26L23.07-11.26L23.07-11.26Q21.76-8.96 18.43-6.91L18.43-6.91L18.43-6.91Q15.10-4.86 10.69-4.86L10.69-4.86L10.69-4.86Q6.27-4.86 3.65-7.62L3.65-7.62L3.65-7.62Q1.02-10.37 1.02-14.85L1.02-14.85L1.02-14.85Q1.02-24.96 14.21-35.52L14.21-35.52L14.21-35.52Q17.60-38.21 23.14-39.94L23.14-39.94L23.14-39.94Q28.67-41.66 33.73-41.66L33.73-41.66L33.73-41.66Q38.78-41.66 40.61-39.90L40.61-39.90L40.61-39.90Q42.43-38.14 42.43-35.20L42.43-35.20L42.43-35.20Q42.43-30.72 38.78-23.10L38.78-23.10L38.78-23.10Q37.63-20.74 33.60-14.46L33.60-14.46L38.53-20.74L38.53-20.74Q42.11-25.41 50.94-34.05L50.94-34.05L50.94-34.05Q52.86-35.90 55.20-37.15L55.20-37.15L55.20-37.15Q57.54-38.40 59.20-38.40L59.20-38.40L59.20-38.40Q61.50-38.40 61.50-35.97L61.50-35.97L61.50-35.97Q61.50-33.86 59.49-29.60L59.49-29.60L59.49-29.60Q57.47-25.34 55.42-21.54L55.42-21.54L55.42-21.54Q53.38-17.73 52.93-16.54L52.93-16.54L52.93-16.54Q52.48-15.36 52.29-14.66L52.29-14.66L52.29-14.66Q52.10-13.95 52.03-13.89L52.03-13.89L52.03-13.89Q52.22-14.21 56.26-18.78L56.26-18.78L56.26-18.78Q60.29-23.36 68.16-30.21L68.16-30.21L78.40-38.66L78.40-38.66Q79.62-39.68 80.58-39.68L80.58-39.68L80.58-39.68Q81.54-39.68 82.14-38.08L82.14-38.08L82.14-38.08Q82.75-36.48 82.75-35.49L82.75-35.49L82.75-35.49Q82.75-34.50 79.68-31.36L79.68-31.36L79.68-31.36Q71.68-23.17 66.11-13.44L66.11-13.44L66.11-13.44Q60.54-3.71 60.54 0.45L60.54 0.45L60.54 0.45Q60.54 1.54 60.93 1.95L60.93 1.95L60.93 1.95Q61.31 2.37 62.14 2.21L62.14 2.21L62.14 2.21Q62.98 2.05 65.63 0.90L65.63 0.90L65.63 0.90Q68.29-0.26 69.12-0.45L69.12-0.45L69.12-0.45Q69.44-0.32 69.44-0.13L69.44-0.13L69.44-0.13Q69.44 0.83 66.08 2.56L66.08 2.56L66.08 2.56Q62.72 4.29 61.02 4.29L61.02 4.29L61.02 4.29Q59.33 4.29 58.94 3.71L58.94 3.71L58.94 3.71Q57.79 2.05 57.79-0.32L57.79-0.32L57.79-0.32Q57.79-5.82 63.68-16.13L63.68-16.13L63.68-16.13Q67.46-22.59 75.33-33.54L75.33-33.54L75.33-33.54Q69.18-28.54 58.69-18.24L58.69-18.24L58.69-18.24Q48.19-7.94 44.93-2.11L44.93-2.11L44.93-2.11Q43.26 0.90 40.90 0.90L40.90 0.90L40.90 0.90Q39.81 0.90 39.81 0.13L39.81 0.13L39.81 0.13Q39.81-0.13 41.12-2.18L41.12-2.18L41.12-2.18Q42.43-4.22 46.91-11.78L46.91-11.78L46.91-11.78Q57.92-30.91 57.92-34.82L57.92-34.82L57.92-34.82Q57.92-35.84 57.22-35.84L57.22-35.84L57.22-35.84Q56.19-35.84 54.21-34.11L54.21-34.11L54.21-34.11Q47.10-28.16 39.10-18.56L39.10-18.56L39.10-18.56Q31.10-8.96 27.07-2.62ZM75.97 0.83L75.97 0.83L75.97 0.83Q75.26 0.83 74.69 0.64L74.69 0.64L74.69 0.64Q70.59-0.51 70.59-3.97L70.59-3.97L70.59-3.97Q70.59-8.45 76.22-14.34L76.22-14.34L76.22-14.34Q81.86-20.22 86.34-20.22L86.34-20.22L86.34-20.22Q87.81-20.22 88.74-19.42L88.74-19.42L88.74-19.42Q89.66-18.62 89.66-17.47L89.66-17.47L89.66-17.47Q89.66-13.89 84.26-10.62L84.26-10.62L84.26-10.62Q78.85-7.36 75.46-7.36L75.46-7.36L75.46-7.36Q74.94-7.36 74.56-7.49L74.56-7.49L74.56-7.49Q73.60-5.76 73.60-3.84L73.60-3.84L73.60-3.84Q73.60-0.51 76.77-0.51L76.77-0.51L76.77-0.51Q79.94-0.51 84.99-4.80L84.99-4.80L84.99-4.80Q88.90-7.94 91.65-11.46L91.65-11.46L91.65-11.46Q92.22-12.22 92.64-12.22L92.64-12.22L92.64-12.22Q93.06-12.22 93.06-11.84L93.06-11.84L93.06-11.84Q93.06-11.46 92.54-10.75L92.54-10.75L92.54-10.75Q89.09-6.21 84.22-2.69L84.22-2.69L84.22-2.69Q79.36 0.83 75.97 0.83ZM88.06-17.60L88.06-17.60L88.06-17.60Q88.06-18.37 86.43-18.37L86.43-18.37L86.43-18.37Q84.80-18.37 81.79-15.87L81.79-15.87L81.79-15.87Q77.76-12.54 75.52-8.90L75.52-8.90L75.52-8.90Q75.90-8.77 76.35-8.77L76.35-8.77L76.35-8.77Q78.78-8.77 82.85-11.36L82.85-11.36L82.85-11.36Q86.91-13.95 87.94-17.02L87.94-17.02L87.94-17.02Q88.06-17.34 88.06-17.60ZM119.74-0.77L119.74-0.77L119.74-0.77Q115.39-0.77 115.39-4.80L115.39-4.80L115.39-4.80Q115.39-7.10 117.44-11.10L117.44-11.10L117.44-11.10Q119.49-15.10 121.73-17.86L121.73-17.86L121.73-17.86Q117.76-15.94 112.58-10.91L112.58-10.91L112.58-10.91Q107.39-5.89 105.34-0.38L105.34-0.38L105.34-0.38Q105.02 0.13 104.26 0.13L104.26 0.13L104.26 0.13Q102.72 0.13 102.72-1.60L102.72-1.60L102.72-1.60Q103.36-5.12 105.60-9.66L105.60-9.66L105.60-9.66Q106.30-11.14 109.76-18.24L109.76-18.24L109.76-18.24Q104.77-14.98 101.28-11.23L101.28-11.23L101.28-11.23Q97.79-7.49 94.82-3.71L94.82-3.71L94.82-3.71Q91.84 0.06 91.46 0.06L91.46 0.06L91.46 0.06Q90.62 0.06 90.02-0.70L90.02-0.70L90.02-0.70Q89.41-1.47 89.41-2.24L89.41-2.24L89.41-2.24Q89.41-3.39 92.74-10.69L92.74-10.69L88.90-6.66L88.90-6.66Q87.49-5.25 87.14-5.25L87.14-5.25L87.14-5.25Q86.78-5.25 86.78-5.66L86.78-5.66L86.78-5.66Q86.78-6.08 87.30-6.59L87.30-6.59L87.30-6.59Q89.66-8.96 91.52-11.33L91.52-11.33L91.52-11.33Q93.38-13.70 97.66-19.78L97.66-19.78L97.66-19.78Q98.37-20.74 99.65-20.74L99.65-20.74L99.65-20.74Q100.93-20.74 100.93-19.52L100.93-19.52L100.93-19.52Q100.93-19.07 97.54-13.28L97.54-13.28L97.54-13.28Q94.14-7.49 93.76-6.02L93.76-6.02L93.76-6.02Q96.38-8.90 101.63-13.76L101.63-13.76L101.63-13.76Q109.50-21.06 112.00-21.06L112.00-21.06L112.00-21.06Q112.77-21.06 113.41-20.61L113.41-20.61L113.41-20.61Q114.05-20.16 114.05-19.62L114.05-19.62L114.05-19.62Q114.05-19.07 111.55-14.78L111.55-14.78L111.55-14.78Q109.12-10.37 108.86-9.54L108.86-9.54L108.86-9.54Q115.97-15.49 115.97-15.55L115.97-15.55L115.97-15.55Q121.98-20.22 124.61-20.22L124.61-20.22L124.61-20.22Q125.38-20.22 126.05-19.74L126.05-19.74L126.05-19.74Q126.72-19.26 126.72-18.62L126.72-18.62L126.72-18.62Q126.72-18.50 122.56-13.22L122.56-13.22L122.56-13.22Q118.40-7.94 117.89-4.54L117.89-4.54L117.89-4.54Q117.76-3.39 118.34-2.82L118.34-2.82L118.34-2.82Q118.91-2.24 120.42-2.24L120.42-2.24L120.42-2.24Q121.92-2.24 124.83-4.32L124.83-4.32L124.83-4.32Q127.74-6.40 130.75-9.92L130.75-9.92L130.75-9.92Q131.90-11.20 132.32-11.20L132.32-11.20L132.32-11.20Q132.74-11.20 132.74-10.88L132.74-10.88L132.74-10.88Q132.74-10.43 132.16-9.86L132.16-9.86L132.16-9.86Q129.02-6.08 125.41-3.42L125.41-3.42L125.41-3.42Q121.79-0.77 119.74-0.77ZM146.24-13.57L146.24-13.57L146.24-13.57Q146.24-11.33 141.95-6.08L141.95-6.08L141.95-6.08Q136.90 0.13 133.31 0.13L133.31 0.13L132.29 0.13L132.29 0.13Q130.62 0.13 129.66-1.60L129.66-1.60L129.66-1.60Q128.90-2.82 128.90-4.29L128.90-4.29L128.90-4.29Q128.90-8.13 134.50-15.07L134.50-15.07L134.50-15.07Q140.10-22.02 143.55-22.02L143.55-22.02L143.55-22.02Q146.82-22.02 146.82-18.56L146.82-18.56L146.82-18.56Q146.82-17.66 146.50-16.26L146.50-16.26L146.50-16.26Q146.56-16.06 147.71-16.06L147.71-16.06L147.71-16.06Q148.86-16.06 151.23-17.28L151.23-17.28L151.23-17.28Q151.17-16.19 146.18-14.14L146.18-14.14L146.18-14.14Q146.24-13.89 146.24-13.57ZM142.08-16.90L142.08-16.90L142.08-16.90Q139.90-16.90 135.90-11.78L135.90-11.78L135.90-11.78Q131.90-6.66 131.90-4.22L131.90-4.22L131.90-4.22Q131.90-1.79 133.44-1.79L133.44-1.79L133.44-1.79Q136.19-1.79 140.42-6.78L140.42-6.78L140.42-6.78Q144.64-11.78 144.64-13.95L144.64-13.95L144.64-13.95Q143.62-14.53 142.08-16.90ZM160.58 0.32L160.58 0.32L160.58 0.32Q155.78 0.32 155.78-4.99L155.78-4.99L155.78-4.99Q155.78-7.68 157.18-10.88L157.18-10.88L157.18-10.88Q158.59-14.08 160.26-16.26L160.26-16.26L160.26-16.26Q159.94-16.19 159.42-16.19L159.42-16.19L159.42-16.19Q157.89-16.19 156.86-18.37L156.86-18.37L152.13-12.22L152.13-12.22Q148.16-7.30 147.52-7.30L147.52-7.30L147.52-7.30Q147.20-7.30 147.20-7.55L147.20-7.55L147.20-7.55Q147.20-8.19 148.29-9.41L148.29-9.41L148.29-9.41Q153.86-15.87 156.16-20.35L156.16-20.35L156.16-20.35Q157.63-25.92 159.87-25.92L159.87-25.92L159.87-25.92Q161.34-25.92 161.34-24.64L161.34-24.64L161.34-24.64Q161.34-23.36 159.74-21.38L159.74-21.38L158.21-19.33L158.21-19.33Q158.21-17.98 160.19-17.98L160.19-17.98L160.19-17.98Q161.34-17.98 162.75-18.82L162.75-18.82L164.42-19.84L164.42-19.84Q164.54-19.90 165.06-19.90L165.06-19.90L165.06-19.90Q165.57-19.90 166.14-19.26L166.14-19.26L166.14-19.26Q166.72-18.62 166.53-18.11L166.53-18.11L162.11-12.54L162.11-12.54Q158.02-7.30 158.02-4.26L158.02-4.26L158.02-4.26Q158.02-1.22 160.83-1.22L160.83-1.22L160.83-1.22Q163.78-1.22 168.06-4.35L168.06-4.35L168.06-4.35Q170.62-6.21 172.74-8.51L172.74-8.51L172.74-8.51Q174.72-10.82 174.91-10.82L174.91-10.82L174.91-10.82Q175.36-10.82 175.36-10.34L175.36-10.34L175.36-10.34Q175.36-9.86 174.78-9.22L174.78-9.22L172.74-6.91L172.74-6.91Q171.01-5.12 168.90-3.46L168.90-3.46L168.90-3.46Q163.84 0.32 160.58 0.32ZM186.62-26.11L186.62-26.11Q187.58-26.11 188.45-25.50L188.45-25.50L188.45-25.50Q189.31-24.90 189.31-24.06L189.31-24.06L189.31-24.06Q189.31-23.23 188.51-22.62L188.51-22.62L188.51-22.62Q187.71-22.02 186.75-22.02L186.75-22.02L186.75-22.02Q185.79-22.02 184.99-22.72L184.99-22.72L184.99-22.72Q184.19-23.42 184.19-24.32L184.19-24.32L184.19-24.32Q184.19-26.11 186.62-26.11L186.62-26.11ZM175.04 0.70L175.04 0.70L175.04 0.70Q171.78 0.70 171.78-3.52L171.78-3.52L171.78-3.52Q171.78-6.98 175.55-13.09L175.55-13.09L175.55-13.09Q179.33-19.20 181.63-19.26L181.63-19.26L181.63-19.26Q182.27-19.26 183.07-18.75L183.07-18.75L183.07-18.75Q183.87-18.24 183.87-17.73L183.87-17.73L183.87-17.73Q183.55-17.28 183.10-16.74L183.10-16.74L183.10-16.74Q182.66-16.19 182.14-15.55L182.14-15.55L182.14-15.55Q181.63-14.91 180.74-13.73L180.74-13.73L180.74-13.73Q179.84-12.54 179.01-11.46L179.01-11.46L179.01-11.46Q174.21-5.25 174.21-2.91L174.21-2.91L174.21-2.91Q174.21-0.58 175.81-0.58L175.81-0.58L175.81-0.58Q177.15-0.58 179.46-2.05L179.46-2.05L179.46-2.05Q184.83-5.38 187.97-9.34L187.97-9.34L187.97-9.34Q189.12-10.82 189.54-10.82L189.54-10.82L189.54-10.82Q189.95-10.82 189.95-10.30L189.95-10.30L189.95-10.30Q189.95-9.79 188.48-8.26L188.48-8.26L188.48-8.26Q187.01-6.72 186.14-5.82L186.14-5.82L186.14-5.82Q185.28-4.93 184.96-4.64L184.96-4.64L184.96-4.64Q184.64-4.35 183.78-3.55L183.78-3.55L183.78-3.55Q182.91-2.75 182.46-2.43L182.46-2.43L182.46-2.43Q182.02-2.11 181.18-1.47L181.18-1.47L181.18-1.47Q180.35-0.83 179.71-0.54L179.71-0.54L179.71-0.54Q179.07-0.26 178.24 0.13L178.24 0.13L178.24 0.13Q176.90 0.70 175.04 0.70ZM190.46 0.83L190.46 0.83L190.46 0.83Q189.76 0.83 189.18 0.64L189.18 0.64L189.18 0.64Q185.09-0.51 185.09-3.97L185.09-3.97L185.09-3.97Q185.09-8.45 190.72-14.34L190.72-14.34L190.72-14.34Q196.35-20.22 200.83-20.22L200.83-20.22L200.83-20.22Q202.30-20.22 203.23-19.42L203.23-19.42L203.23-19.42Q204.16-18.62 204.16-17.47L204.16-17.47L204.16-17.47Q204.16-13.89 198.75-10.62L198.75-10.62L198.75-10.62Q193.34-7.36 189.95-7.36L189.95-7.36L189.95-7.36Q189.44-7.36 189.06-7.49L189.06-7.49L189.06-7.49Q188.10-5.76 188.10-3.84L188.10-3.84L188.10-3.84Q188.10-0.51 191.26-0.51L191.26-0.51L191.26-0.51Q194.43-0.51 199.49-4.80L199.49-4.80L199.49-4.80Q203.39-7.94 206.14-11.46L206.14-11.46L206.14-11.46Q206.72-12.22 207.14-12.22L207.14-12.22L207.14-12.22Q207.55-12.22 207.55-11.84L207.55-11.84L207.55-11.84Q207.55-11.46 207.04-10.75L207.04-10.75L207.04-10.75Q203.58-6.21 198.72-2.69L198.72-2.69L198.72-2.69Q193.86 0.83 190.46 0.83ZM202.56-17.60L202.56-17.60L202.56-17.60Q202.56-18.37 200.93-18.37L200.93-18.37L200.93-18.37Q199.30-18.37 196.29-15.87L196.29-15.87L196.29-15.87Q192.26-12.54 190.02-8.90L190.02-8.90L190.02-8.90Q190.40-8.77 190.85-8.77L190.85-8.77L190.85-8.77Q193.28-8.77 197.34-11.36L197.34-11.36L197.34-11.36Q201.41-13.95 202.43-17.02L202.43-17.02L202.43-17.02Q202.56-17.34 202.56-17.60ZM217.47-2.30L215.42-0.96L215.42-0.96Q213.57 0.13 210.85 0.13L210.85 0.13L210.85 0.13Q208.13 0.13 206.69-1.66L206.69-1.66L206.69-1.66Q205.25-3.46 204.22-7.36L204.22-7.36L204.22-7.36Q203.07-6.21 202.62-6.21L202.62-6.21L202.62-6.21Q202.30-6.21 202.30-6.66L202.30-6.66L202.30-6.66Q202.30-7.10 202.62-7.42L202.62-7.42L202.62-7.42Q204.74-10.05 209.79-14.98L209.79-14.98L217.86-22.53L217.86-22.53Q221.31-25.79 221.95-25.79L221.95-25.79L221.95-25.79Q224.00-25.79 224.00-24.26L224.00-24.26L224.00-24.26Q224.00-23.49 223.39-22.75L223.39-22.75L223.39-22.75Q222.78-22.02 222.50-21.60L222.50-21.60L222.50-21.60Q222.21-21.18 221.89-20.80L221.89-20.80L221.89-20.80Q220.74-18.82 219.55-12.61L219.55-12.61L219.55-12.61Q218.37-6.40 217.73-3.97L217.73-3.97L217.73-3.97Q223.04-4.03 228.67-10.88L228.67-10.88L228.67-10.88Q229.31-11.52 229.63-11.52L229.63-11.52L229.63-11.52Q229.95-11.52 229.95-11.10L229.95-11.10L229.95-11.10Q229.95-10.69 229.38-9.98L229.38-9.98L229.38-9.98Q225.66-5.63 222.46-3.90L222.46-3.90L222.46-3.90Q220.54-2.94 217.47-2.30L217.47-2.30ZM206.78-8.06L206.78-8.06L206.78-8.06Q206.78-5.89 208.22-4.51L208.22-4.51L208.22-4.51Q209.66-3.14 211.46-3.14L211.46-3.14L211.46-3.14Q213.25-3.14 214.21-3.84L214.21-3.84L214.21-3.84Q215.49-4.54 216.74-9.73L216.74-9.73L216.74-9.73Q217.98-14.91 218.24-18.88L218.24-18.88L218.50-21.06L218.50-21.06Q214.98-18.43 210.98-14.27L210.98-14.27L210.98-14.27Q206.98-10.11 206.85-8.77L206.85-8.77L206.85-8.77Q206.78-8.38 206.78-8.06Z" fill="#080808"></path></g></g><style>text {
  font-size: 64px;
  font-family: Arial Black;
  dominant-baseline: central;
  text-anchor: middle;
}</style></svg>